<svg width="30" height="30" viewBox="0 0 30 30" fill="none" xmlns="http://www.w3.org/2000/svg">
<path d="M4.80566 20.2744C7.45984 20.2744 9.61133 22.4521 9.61133 25.1377C9.61107 27.8231 7.45968 30 4.80566 30C2.15171 29.9999 0.000255935 27.8231 0 25.1377C0 22.4521 2.15156 20.2745 4.80566 20.2744ZM24.6543 10.1455C24.6541 12.9829 22.4042 17.3963 18.5889 17.3965H0C0.684853 15.0319 3.22902 10.1455 6.16406 10.1455H24.6543ZM30 0C30 2.83745 27.2645 7.25094 22.626 7.25098H0.0283203C0.86104 4.88638 3.95281 0.000430619 7.52051 0H30Z" fill="#08F7E4"/>
</svg>
