<svg width="54" height="62" viewBox="0 0 54 62" fill="none" xmlns="http://www.w3.org/2000/svg">
<path d="M16.8057 20.2744C19.4598 20.2744 21.6113 22.4521 21.6113 25.1377C21.6111 27.8231 19.4597 30 16.8057 30C14.1517 29.9999 12.0003 27.8231 12 25.1377C12 22.4521 14.1516 20.2745 16.8057 20.2744ZM36.6543 10.1455C36.6541 12.9829 34.4042 17.3963 30.5889 17.3965H12C12.6849 15.0319 15.229 10.1455 18.1641 10.1455H36.6543ZM42 0C42 2.83745 39.2645 7.25094 34.626 7.25098H12.0283C12.861 4.88638 15.9528 0.000430619 19.5205 0H42Z" fill="#08F7E4"/>
<path d="M0.99 41.12H7.182V42.515H2.52V46.349H6.867V47.735H2.52V53H0.99V41.12ZM9.66038 49.625C9.66638 50.069 9.76238 50.474 9.94838 50.84C10.1344 51.206 10.4104 51.497 10.7764 51.713C11.1484 51.929 11.6044 52.037 12.1444 52.037C12.6004 52.037 12.9874 51.971 13.3054 51.839C13.6294 51.701 13.8934 51.539 14.0974 51.353C14.3014 51.161 14.4484 50.99 14.5384 50.84L15.3034 51.785C15.1054 52.073 14.8624 52.325 14.5744 52.541C14.2924 52.757 13.9474 52.922 13.5394 53.036C13.1314 53.156 12.6334 53.216 12.0454 53.216C11.2534 53.216 10.5664 53.048 9.98438 52.712C9.40838 52.37 8.96438 51.899 8.65238 51.299C8.34038 50.693 8.18438 50 8.18438 49.22C8.18438 48.5 8.33138 47.852 8.62538 47.276C8.91938 46.694 9.34538 46.235 9.90338 45.899C10.4674 45.563 11.1454 45.395 11.9374 45.395C12.6634 45.395 13.2934 45.548 13.8274 45.854C14.3674 46.154 14.7844 46.58 15.0784 47.132C15.3784 47.684 15.5284 48.344 15.5284 49.112C15.5284 49.16 15.5254 49.247 15.5194 49.373C15.5134 49.493 15.5074 49.577 15.5014 49.625H9.66038ZM14.0344 48.446C14.0284 48.2 13.9564 47.93 13.8184 47.636C13.6864 47.342 13.4704 47.09 13.1704 46.88C12.8704 46.67 12.4654 46.565 11.9554 46.565C11.4274 46.565 11.0014 46.667 10.6774 46.871C10.3594 47.075 10.1254 47.324 9.97538 47.618C9.82538 47.906 9.73838 48.182 9.71438 48.446H14.0344ZM20.3265 51.569L22.8195 45.611H24.3855L19.3995 56.744H17.8155L19.4895 53L16.4475 45.611H18.0405L20.3265 51.569ZM27.111 53H25.554V45.611H27.111V46.889H27.066C27.096 46.733 27.207 46.538 27.399 46.304C27.591 46.07 27.855 45.86 28.191 45.674C28.527 45.488 28.929 45.395 29.397 45.395C29.739 45.395 30.039 45.443 30.297 45.539C30.561 45.629 30.747 45.719 30.855 45.809L30.216 47.105C30.132 47.021 29.985 46.937 29.775 46.853C29.565 46.763 29.304 46.718 28.992 46.718C28.596 46.718 28.257 46.841 27.975 47.087C27.693 47.333 27.477 47.63 27.327 47.978C27.183 48.32 27.111 48.638 27.111 48.932V53ZM32.0359 53V45.611H33.6019V53H32.0359ZM32.8369 43.082C32.5549 43.082 32.3119 42.983 32.1079 42.785C31.9099 42.581 31.8109 42.338 31.8109 42.056C31.8109 41.774 31.9099 41.531 32.1079 41.327C32.3119 41.123 32.5549 41.021 32.8369 41.021C33.0229 41.021 33.1939 41.069 33.3499 41.165C33.5119 41.261 33.6409 41.387 33.7369 41.543C33.8329 41.693 33.8809 41.864 33.8809 42.056C33.8809 42.338 33.7789 42.581 33.5749 42.785C33.3709 42.983 33.1249 43.082 32.8369 43.082ZM39.2538 53.216C38.5758 53.216 37.9668 53.054 37.4268 52.73C36.8928 52.406 36.4698 51.953 36.1578 51.371C35.8518 50.783 35.6988 50.096 35.6988 49.31C35.6988 48.524 35.8518 47.84 36.1578 47.258C36.4698 46.67 36.8928 46.214 37.4268 45.89C37.9668 45.56 38.5758 45.395 39.2538 45.395C39.7998 45.395 40.2798 45.491 40.6938 45.683C41.1078 45.869 41.4378 46.088 41.6838 46.34C41.9298 46.592 42.0708 46.811 42.1068 46.997V40.616H43.6818V53H42.1338V51.56C42.0678 51.764 41.9028 51.995 41.6388 52.253C41.3808 52.511 41.0478 52.736 40.6398 52.928C40.2318 53.12 39.7698 53.216 39.2538 53.216ZM39.6138 51.92C40.0698 51.92 40.4868 51.812 40.8648 51.596C41.2428 51.38 41.5428 51.077 41.7648 50.687C41.9928 50.291 42.1068 49.832 42.1068 49.31C42.1068 48.788 41.9928 48.332 41.7648 47.942C41.5428 47.546 41.2428 47.24 40.8648 47.024C40.4868 46.802 40.0698 46.691 39.6138 46.691C39.1938 46.691 38.8038 46.799 38.4438 47.015C38.0838 47.231 37.7928 47.534 37.5708 47.924C37.3548 48.314 37.2468 48.776 37.2468 49.31C37.2468 49.844 37.3548 50.306 37.5708 50.696C37.7928 51.086 38.0838 51.389 38.4438 51.605C38.8038 51.815 39.1938 51.92 39.6138 51.92ZM46.4162 49.625C46.4222 50.069 46.5182 50.474 46.7042 50.84C46.8902 51.206 47.1662 51.497 47.5322 51.713C47.9042 51.929 48.3602 52.037 48.9002 52.037C49.3562 52.037 49.7432 51.971 50.0612 51.839C50.3852 51.701 50.6492 51.539 50.8532 51.353C51.0572 51.161 51.2042 50.99 51.2942 50.84L52.0592 51.785C51.8612 52.073 51.6182 52.325 51.3302 52.541C51.0482 52.757 50.7032 52.922 50.2952 53.036C49.8872 53.156 49.3892 53.216 48.8012 53.216C48.0092 53.216 47.3222 53.048 46.7402 52.712C46.1642 52.37 45.7202 51.899 45.4082 51.299C45.0962 50.693 44.9402 50 44.9402 49.22C44.9402 48.5 45.0872 47.852 45.3812 47.276C45.6752 46.694 46.1012 46.235 46.6592 45.899C47.2232 45.563 47.9012 45.395 48.6932 45.395C49.4192 45.395 50.0492 45.548 50.5832 45.854C51.1232 46.154 51.5402 46.58 51.8342 47.132C52.1342 47.684 52.2842 48.344 52.2842 49.112C52.2842 49.16 52.2812 49.247 52.2752 49.373C52.2692 49.493 52.2632 49.577 52.2572 49.625H46.4162ZM50.7902 48.446C50.7842 48.2 50.7122 47.93 50.5742 47.636C50.4422 47.342 50.2262 47.09 49.9262 46.88C49.6262 46.67 49.2212 46.565 48.7112 46.565C48.1832 46.565 47.7572 46.667 47.4332 46.871C47.1152 47.075 46.8812 47.324 46.7312 47.618C46.5812 47.906 46.4942 48.182 46.4702 48.446H50.7902Z" fill="black"/>
</svg>
